<?xml version="1.0" encoding="UTF-8"?>
<svg version="1.1" xmlns="http://www.w3.org/2000/svg" width="500" height="500">
<path d="M0 0 C165 0 330 0 500 0 C500 165 500 330 500 500 C335 500 170 500 0 500 C0 335 0 170 0 0 Z " fill="#FDFDFE" transform="translate(0,0)"/>
<path d="M0 0 C43.95 0 43.95 0 59 7 C59 7.66 59 8.32 59 9 C59.73089844 9.25007812 60.46179688 9.50015625 61.21484375 9.7578125 C64.23008967 11.10262064 66.14213232 12.6440524 68.5625 14.875 C69.30628906 15.55304688 70.05007812 16.23109375 70.81640625 16.9296875 C71.53699219 17.61289063 72.25757813 18.29609375 73 19 C73.69567078 19.51346985 74.39134155 20.0269397 75.10809326 20.55596924 C77.96930256 24.25217868 77.52898613 27.62407242 77.45410156 32.17480469 C77.45468567 33.101978 77.45526978 34.02915131 77.45587158 34.98442078 C77.45308614 38.04728712 77.42197199 41.10917879 77.390625 44.171875 C77.38316426 46.29607613 77.37747054 48.42028415 77.37347412 50.54449463 C77.35820474 56.13420631 77.31891132 61.72350196 77.2746582 67.31304932 C77.23373385 73.01723604 77.21546914 78.72149002 77.1953125 84.42578125 C77.15241863 95.61737024 77.08415122 106.80865052 77 118 C76.34 118 75.68 118 75 118 C73.86866577 116.83438292 72.73841694 115.66769522 71.61328125 114.49609375 C68.41701971 111.53200617 64.68244657 109.30792224 61 107 C59.88625 106.29875 58.7725 105.5975 57.625 104.875 C39.60388258 94.81180593 20.88526041 97.54961212 0 97 C0 64.99 0 32.98 0 0 Z " fill="#274692" transform="translate(169,150)"/>
<path d="M0 0 C0 32.01 0 64.02 0 97 C-17.325 97.495 -17.325 97.495 -35 98 C-41.47107824 99.42445119 -46.18526768 100.46678131 -52 103 C-53.08152344 103.44472656 -54.16304688 103.88945312 -55.27734375 104.34765625 C-61.97672839 107.38054286 -67.37504998 111.43673861 -72.91796875 116.2421875 C-75 118 -75 118 -76 118 C-76.16248511 106.02994751 -76.28671902 94.06015914 -76.3626852 82.08922672 C-76.39915321 76.53003432 -76.44858644 70.9715987 -76.52807617 65.4128418 C-76.60436475 60.04409327 -76.64603865 54.67607072 -76.6641407 49.30682182 C-76.67703381 47.26269546 -76.70221186 45.21860701 -76.7401104 43.17479134 C-77.06090711 25.15110854 -77.06090711 25.15110854 -72.69946289 19.37670898 C-70.88563538 17.5400238 -70.88563538 17.5400238 -69 16 C-68.32637924 15.42327042 -67.65275848 14.84654083 -66.95872498 14.25233459 C-46.97581295 -2.11926989 -25.56190099 0 0 0 Z " fill="#265B93" transform="translate(331,149)"/>
<path d="M0 0 C3.3 0 6.6 0 10 0 C10 30.36 10 60.72 10 92 C24.85 92 39.7 92 55 92 C69.74982705 96.42494811 81.21769338 102.04046862 92.53417969 112.39282227 C96.13990823 115.61188263 96.13990823 115.61188263 101 116 C103.00642265 114.2899555 103.00642265 114.2899555 104.9375 112 C115.53715405 100.94855742 129.30795814 95.26489819 144 92 C158.52 92 173.04 92 188 92 C188 61.64 188 31.28 188 0 C191.63 0 195.26 0 199 0 C199 34.98 199 69.96 199 106 C172.75 106.4375 172.75 106.4375 164.53808594 106.56811523 C162.35351014 106.60629551 160.16893945 106.64476935 157.984375 106.68359375 C156.87980957 106.70006958 155.77524414 106.71654541 154.63720703 106.73352051 C139.95570498 106.84939643 139.95570498 106.84939643 125.83984375 110.37890625 C124 111 124 111 121 111 C121 111.66 121 112.32 121 113 C120.071875 113.33 119.14375 113.66 118.1875 114 C112.07009444 116.60208662 105.90506267 120.90126648 101.359375 125.75 C100 127 100 127 97 127 C95.33333333 125.33333333 93.66666667 123.66666667 92 122 C90.07981263 120.66081353 88.11278777 119.45550844 86.1015625 118.2578125 C84.72160631 117.43189077 83.36075768 116.57299624 82.0234375 115.6796875 C69.98890072 107.6726451 55.10728765 105.56886398 40.91796875 105.48828125 C39.34529236 105.46332581 39.34529236 105.46332581 37.74084473 105.43786621 C33.88992593 105.38079799 30.03867803 105.34799843 26.1875 105.3125 C17.545625 105.209375 8.90375 105.10625 0 105 C0 70.35 0 35.7 0 0 Z " fill="#314359" transform="translate(151,166)"/>
<path d="M0 0 C3.3 0 6.6 0 10 0 C10 30.36 10 60.72 10 92 C24.85 92 39.7 92 55 92 C80.93323217 99.77996965 80.93323217 99.77996965 85.28515625 107.1875 C85.63900391 108.0846875 85.63900391 108.0846875 86 109 C84.515 108.505 84.515 108.505 83 108 C81.06201737 110.77260299 81.06201737 110.77260299 80 113 C79.21238281 112.74605469 78.42476563 112.49210937 77.61328125 112.23046875 C76.52402344 111.88628906 75.43476563 111.54210937 74.3125 111.1875 C73.25675781 110.85105469 72.20101562 110.51460938 71.11328125 110.16796875 C60.99469434 107.20871611 51.47176052 105.54821741 40.91796875 105.48828125 C39.34529236 105.46332581 39.34529236 105.46332581 37.74084473 105.43786621 C33.88992593 105.38079799 30.03867803 105.34799843 26.1875 105.3125 C17.545625 105.209375 8.90375 105.10625 0 105 C0 70.35 0 35.7 0 0 Z " fill="#293C53" transform="translate(151,166)"/>
<path d="M0 0 C2.33294775 -0.04241723 4.66702567 -0.04092937 7 0 C8 1 8 1 8.0625 4.5625 C8.041875 5.696875 8.02125 6.83125 8 8 C6.35 8.66 4.7 9.32 3 10 C5.1385485 12.1385485 6.13275314 12.42655063 9 13 C9.125 20.75 9.125 20.75 8 23 C6.68 23 5.36 23 4 23 C4 23.66 4 24.32 4 25 C5.98 25.99 7.96 26.98 10 28 C10.3125 31.3125 10.3125 31.3125 10 35 C7.75 37 7.75 37 5 38 C2.49496229 37.85264484 1.31249474 37.21205 -0.75 35.8125 C-2.54267046 33.21312784 -2.20510719 31.07660784 -2 28 C-2.50615298 29.26839526 -3.00469099 30.53983102 -3.5 31.8125 C-3.7784375 32.52019531 -4.056875 33.22789062 -4.34375 33.95703125 C-5.1529162 36.11841216 -5.1529162 36.11841216 -5 39 C-3.56249809 40.68798827 -3.56249809 40.68798827 -2 42 C-4.15617433 48.13680387 -4.15617433 48.13680387 -7 50 C-10.625 50.25 -10.625 50.25 -14 50 C-15.65892472 48.34107528 -15.24986813 46.39952582 -15.3125 44.125 C-15.34988281 43.24070313 -15.38726562 42.35640625 -15.42578125 41.4453125 C-15 39 -15 39 -12.98046875 37.1796875 C-12.00013672 36.59574219 -12.00013672 36.59574219 -11 36 C-12.32 35.67 -13.64 35.34 -15 35 C-15.37290242 27.41765071 -15.37290242 27.41765071 -13.4375 25.25 C-12.963125 24.8375 -12.48875 24.425 -12 24 C-12.22757731 21.83700789 -12.22757731 21.83700789 -13 20 C-13.66 20 -14.32 20 -15 20 C-15.0991667 13.90675749 -15.17328971 7.99681407 -14 2 C-13 1 -13 1 -9.4375 0.9375 C-8.303125 0.958125 -7.16875 0.97875 -6 1 C-5.875 6.75 -5.875 6.75 -7 9 C-7.99 9.33 -8.98 9.66 -10 10 C-10.33 10.66 -10.66 11.32 -11 12 C-8.71305777 12.50379029 -8.71305777 12.50379029 -6 12 C-2.01914689 8.20009476 -0.40148553 5.62079741 0 0 Z " fill="#15729A" transform="translate(295,175)"/>
<path d="M0 0 C2.31 0 4.62 0 7 0 C7.33 3.96 7.66 7.92 8 12 C9.32 11.34 10.64 10.68 12 10 C15.93429482 9.48683111 17.67516615 9.82165985 21.1875 11.75 C24.52495012 14.41996009 26.6902477 16.29119979 27.46875 20.5859375 C27.56353128 29.04516651 27.56353128 29.04516651 24.6875 32.625 C21.4488677 35.48704715 19.19312748 36.14779235 15 36.1875 C13.9790625 36.20876953 13.9790625 36.20876953 12.9375 36.23046875 C11 36 11 36 8 34 C7.67 34.66 7.34 35.32 7 36 C4.69 36 2.38 36 0 36 C0 24.12 0 12.24 0 0 Z " fill="#3B5062" transform="translate(358,302)"/>
<path d="M0 0 C2.31 0 4.62 0 7 0 C7.33 4.62 7.66 9.24 8 14 C8.85722656 12.989375 9.71445312 11.97875 10.59765625 10.9375 C11.75157572 9.62409572 12.90658118 8.31164501 14.0625 7 C14.90458008 5.99839844 14.90458008 5.99839844 15.76367188 4.9765625 C20.1196036 0.09791896 20.1196036 0.09791896 24.93359375 -0.4375 C26.45146484 -0.2209375 26.45146484 -0.2209375 28 0 C25.82018884 3.52123341 23.77444086 6.29216846 20.6875 9.0625 C17.7572911 11.60688914 17.7572911 11.60688914 17.984375 14.19921875 C19.45855248 18.26454665 21.93637941 21.34686246 24.5625 24.75 C30 31.90566914 30 31.90566914 30 33 C23.01709667 33.77587815 23.01709667 33.77587815 20.40234375 31.78125 C18.97100389 30.08484721 17.72396813 28.35134802 16.5 26.5 C15.83871094 25.56994141 15.83871094 25.56994141 15.1640625 24.62109375 C14.08564761 23.09724662 13.03946518 21.55067756 12 20 C8.25869499 22.49138006 8.25869499 22.49138006 6.29296875 26.359375 C6.25816406 27.14828125 6.22335937 27.9371875 6.1875 28.75 C6.13980469 29.54921875 6.09210938 30.3484375 6.04296875 31.171875 C6.02878906 31.77515625 6.01460938 32.3784375 6 33 C4.02 33 2.04 33 0 33 C0 22.11 0 11.22 0 0 Z " fill="#354A5D" transform="translate(262,305)"/>
<path d="M0 0 C1.89935998 0.7177617 3.76791368 1.51605552 5.62890625 2.328125 C4.96890625 4.308125 4.30890625 6.288125 3.62890625 8.328125 C2.43265625 7.998125 1.23640625 7.668125 0.00390625 7.328125 C-3.52900872 6.43546677 -6.71188484 6.14516455 -10.37109375 6.328125 C-10.70109375 7.648125 -11.03109375 8.968125 -11.37109375 10.328125 C-10.39527344 10.72644531 -9.41945313 11.12476563 -8.4140625 11.53515625 C-7.12874439 12.06992364 -5.843597 12.60510148 -4.55859375 13.140625 C-3.91599609 13.40166016 -3.27339844 13.66269531 -2.61132812 13.93164062 C3.70289947 16.58165324 3.70289947 16.58165324 5.62890625 19.328125 C6.02807173 22.42165744 6.26362962 24.36800599 5.62890625 27.328125 C3.45316209 30.01917698 1.71824769 31.78345428 -1.37109375 33.328125 C-8.86165856 34.02148532 -14.2208339 33.80104125 -20.37109375 29.328125 C-20.04109375 27.678125 -19.71109375 26.028125 -19.37109375 24.328125 C-16.37109375 24.328125 -16.37109375 24.328125 -14.51171875 25.3203125 C-11.89068493 26.55430287 -10.00205791 26.52893985 -7.12109375 26.453125 C-5.78304687 26.42605469 -5.78304687 26.42605469 -4.41796875 26.3984375 C-3.7425 26.37523437 -3.06703125 26.35203125 -2.37109375 26.328125 C-2.45622352 23.87132487 -2.45622352 23.87132487 -3.37109375 21.328125 C-5.7330264 20.06444851 -5.7330264 20.06444851 -8.62109375 19.390625 C-14.02718867 17.63082848 -16.60700235 16.36272005 -19.37109375 11.328125 C-19.49609375 7.703125 -19.49609375 7.703125 -18.37109375 4.328125 C-12.91097488 -0.99199082 -7.32843638 -2.07659153 0 0 Z " fill="#364B5E" transform="translate(135.37109375,304.671875)"/>
<path d="M0 0 C2.87029869 1.79393668 4.49131638 2.98263276 6 6 C6.08372659 7.52148326 6.10730027 9.04655778 6.09765625 10.5703125 C6.09443359 11.46621094 6.09121094 12.36210937 6.08789062 13.28515625 C6.07951172 14.22230469 6.07113281 15.15945313 6.0625 16.125 C6.05798828 17.06988281 6.05347656 18.01476562 6.04882812 18.98828125 C6.03702357 21.32558387 6.02055759 23.66276061 6 26 C4.02 26 2.04 26 0 26 C-0.33 25.34 -0.66 24.68 -1 24 C-1.99 24.66 -2.98 25.32 -4 26 C-8.25763793 26.67432203 -11.84466258 26.70447403 -15.5625 24.4375 C-17.56331202 21.04481874 -17.55326548 18.87285839 -17 15 C-15.390625 12.796875 -15.390625 12.796875 -13 11 C-9.765625 10.609375 -9.765625 10.609375 -6.25 10.75 C-5.07953125 10.78609375 -3.9090625 10.8221875 -2.703125 10.859375 C-1.81109375 10.90578125 -0.9190625 10.9521875 0 11 C-1.29880736 8.46699217 -1.29880736 8.46699217 -3 6 C-6.83196766 5.50017813 -10.25838676 6.11962041 -14 7 C-14.33 5.68 -14.66 4.36 -15 3 C-10.03937772 -0.05269064 -5.70702657 -0.97744654 0 0 Z " fill="#354A5D" transform="translate(236,312)"/>
<path d="M0 0 C1.98 0 3.96 0 6 0 C6.33 3.96 6.66 7.92 7 12 C8.65 11.01 10.3 10.02 12 9 C16.62373012 8.42203373 19.31959072 9.13745945 23 12 C24.81629095 14.93781721 25.24164585 17.11820687 25.1953125 20.546875 C25.18886719 21.39121094 25.18242187 22.23554688 25.17578125 23.10546875 C25.15902344 23.97816406 25.14226562 24.85085938 25.125 25.75 C25.11597656 26.63816406 25.10695312 27.52632813 25.09765625 28.44140625 C25.07414577 30.62788058 25.04128499 32.81380094 25 35 C22.69 35 20.38 35 18 35 C17.67 29.06 17.34 23.12 17 17 C10.71094566 15.43288081 10.71094566 15.43288081 8.10546875 16.92578125 C6.36830482 20.18526552 6.42297626 23.57334823 6.3125 27.1875 C6.27833984 27.93708984 6.24417969 28.68667969 6.20898438 29.45898438 C6.12665706 31.30546838 6.06164719 33.15270994 6 35 C4.02 35 2.04 35 0 35 C0 23.45 0 11.9 0 0 Z " fill="#354A5D" transform="translate(189,303)"/>
<path d="M0 0 C2.91927604 1.3961755 4.72202996 2.72202996 7 5 C7.22705078 7.15478516 7.22705078 7.15478516 7.1953125 9.7890625 C7.18886719 10.73007812 7.18242187 11.67109375 7.17578125 12.640625 C7.15902344 13.62546875 7.14226562 14.6103125 7.125 15.625 C7.11597656 16.61757813 7.10695313 17.61015625 7.09765625 18.6328125 C7.07404116 21.08878134 7.04110799 23.54427168 7 26 C5.02 26 3.04 26 1 26 C1 25.34 1 24.68 1 24 C0.505 24.33 0.01 24.66 -0.5 25 C-4.02265658 26.40906263 -7.30064493 26.71056919 -11 26 C-14.4752331 23.53837655 -15.77086776 22.12274796 -16.625 17.9375 C-16 15 -16 15 -14.25 12.625 C-9.29290434 10.14645217 -4.44231023 10.68752286 1 11 C0.67 9.35 0.34 7.7 0 6 C-4.51617599 5.92345464 -8.59085217 5.89771304 -13 7 C-13.33 5.68 -13.66 4.36 -14 3 C-8.96652223 -0.02008666 -5.72319081 -0.54506579 0 0 Z " fill="#344A5D" transform="translate(344,312)"/>
<path d="M0 0 C2.91927604 1.3961755 4.72202996 2.72202996 7 5 C7.22705078 7.15478516 7.22705078 7.15478516 7.1953125 9.7890625 C7.18886719 10.73007812 7.18242187 11.67109375 7.17578125 12.640625 C7.15902344 13.62546875 7.14226562 14.6103125 7.125 15.625 C7.11597656 16.61757813 7.10695312 17.61015625 7.09765625 18.6328125 C7.07404116 21.08878134 7.04110799 23.54427168 7 26 C5.02 26 3.04 26 1 26 C1 25.34 1 24.68 1 24 C0.505 24.33 0.01 24.66 -0.5 25 C-4.02265658 26.40906263 -7.30064493 26.71056919 -11 26 C-14.4752331 23.53837655 -15.77086776 22.12274796 -16.625 17.9375 C-16 15 -16 15 -14.25 12.625 C-9.29290434 10.14645217 -4.44231023 10.68752286 1 11 C0.67 9.35 0.34 7.7 0 6 C-4.51617599 5.92345464 -8.59085217 5.89771304 -13 7 C-13.33 5.68 -13.66 4.36 -14 3 C-8.96652223 -0.02008666 -5.72319081 -0.54506579 0 0 Z " fill="#354A5D" transform="translate(161,312)"/>
<path d="M0 0 C-1.29009643 0.50403768 -2.58213789 1.00309926 -3.875 1.5 C-4.59429687 1.7784375 -5.31359375 2.056875 -6.0546875 2.34375 C-8 3 -8 3 -10 3 C-10 3.99 -10 4.98 -10 6 C-16.75 8.125 -16.75 8.125 -19 7 C-18.505 8.485 -18.505 8.485 -18 10 C-19.32 9.67 -20.64 9.34 -22 9 C-21.814375 9.78375 -21.62875 10.5675 -21.4375 11.375 C-21 14 -21 14 -22 16 C-20.68 16.66 -19.36 17.32 -18 18 C-18.928125 18.33 -19.85625 18.66 -20.8125 19 C-26.92990556 21.60208662 -33.09493733 25.90126648 -37.640625 30.75 C-39 32 -39 32 -42 32 C-43.66666667 30.33333333 -45.33333333 28.66666667 -47 27 C-48.95562341 25.65045822 -50.95857351 24.42486389 -52.99609375 23.203125 C-55.72986435 21.56179684 -58.35750494 19.78368416 -61 18 C-60.34 17.34 -59.68 16.68 -59 16 C-58.38125 15.278125 -57.7625 14.55625 -57.125 13.8125 C-55 12 -55 12 -53.1953125 12.1015625 C-50.12814725 13.35680807 -48.16404346 15.30727519 -45.75 17.5625 C-44.41195312 18.80193359 -44.41195312 18.80193359 -43.046875 20.06640625 C-42.37140625 20.70449219 -41.6959375 21.34257812 -41 22 C-37.77298796 20.60186349 -35.89504935 18.98288368 -33.5625 16.375 C-26.89783075 9.56195222 -10.13738557 -3.79257484 0 0 Z " fill="#354458" transform="translate(290,261)"/>
<path d="M0 0 C43.95 0 43.95 0 59 7 C59 7.66 59 8.32 59 9 C59.66 9.33 60.32 9.66 61 10 C60.01 10 59.02 10 58 10 C58 9.34 58 8.68 58 8 C57.154375 8.061875 56.30875 8.12375 55.4375 8.1875 C52.0776039 8.00423294 49.94668058 7.22086224 46.9375 5.796875 C44.01679992 4.59561932 41.00838966 4.03606957 37.91796875 3.4296875 C36 3 36 3 34 2 C23.44 1.67 12.88 1.34 2 1 C2 32.35 2 63.7 2 96 C11.9 96 21.8 96 32 96 C32 96.33 32 96.66 32 97 C21.44 97 10.88 97 0 97 C0 64.99 0 32.98 0 0 Z " fill="#6D7AAC" transform="translate(169,150)"/>
<path d="M0 0 C2.31 0 4.62 0 7 0 C7 2.31 7 4.62 7 7 C9.31 7 11.62 7 14 7 C14 8.65 14 10.3 14 12 C11.69 12 9.38 12 7 12 C7.33 16.62 7.66 21.24 8 26 C9.65 26 11.3 26 13 26 C13.33 27.65 13.66 29.3 14 31 C10.86599115 32.56700442 7.36844905 32.85164561 4 32 C0.83368663 29.12604657 0.053375 27.51506872 -0.390625 23.23046875 C-0.36431837 21.88225415 -0.31701804 20.53430482 -0.25 19.1875 C-0.23195313 18.49462891 -0.21390625 17.80175781 -0.1953125 17.08789062 C-0.14851064 15.39132336 -0.07677624 13.69547524 0 12 C-0.99 12 -1.98 12 -3 12 C-3 10.35 -3 8.7 -3 7 C-2.01 7 -1.02 7 0 7 C0 4.69 0 2.38 0 0 Z " fill="#415567" transform="translate(311,306)"/>
<path d="M0 0 C0.66 0 1.32 0 2 0 C2.33 30.69 2.66 61.38 3 93 C2.34 93 1.68 93 1 93 C-1.60315059 90.39684941 -1.2403442 88.5962528 -1.25994873 85.05075073 C-1.25432922 84.21794586 -1.24870972 83.38514099 -1.24291992 82.52709961 C-1.24481827 81.6505925 -1.24671661 80.77408539 -1.24867249 79.87101746 C-1.25238673 76.96470281 -1.24166765 74.0586363 -1.23046875 71.15234375 C-1.2292773 69.13977589 -1.22882371 67.12720748 -1.2290802 65.11463928 C-1.22751426 60.89369229 -1.21921557 56.67282999 -1.20581055 52.4519043 C-1.18880967 47.02862488 -1.18499645 41.60543853 -1.18575573 36.18213558 C-1.18548444 32.02587488 -1.18001001 27.86963471 -1.17275429 23.71338081 C-1.16956176 21.71299966 -1.16759886 19.71261616 -1.16686058 17.71223259 C-1.16470379 14.92261626 -1.15597429 12.13310071 -1.14526367 9.34350586 C-1.14571686 8.50867676 -1.14617004 7.67384766 -1.14663696 6.8137207 C-1.1144743 1.1144743 -1.1144743 1.1144743 0 0 Z " fill="#D6E6EF" transform="translate(253,175)"/>
<path d="M0 0 C1.98 0 3.96 0 6 0 C6.07430494 4.19918185 6.12867413 8.39801274 6.16479492 12.59765625 C6.17985681 14.02545846 6.20031062 15.4532146 6.22631836 16.88085938 C6.26281842 18.93631373 6.27975166 20.99115505 6.29296875 23.046875 C6.31653442 24.90070801 6.31653442 24.90070801 6.34057617 26.79199219 C5.97648174 30.22152688 5.44091379 31.60902067 3 34 C0.73828125 34.390625 0.73828125 34.390625 -1.6875 34.25 C-2.49574219 34.21390625 -3.30398437 34.1778125 -4.13671875 34.140625 C-4.75160156 34.09421875 -5.36648437 34.0478125 -6 34 C-6 32.35 -6 30.7 -6 29 C-4.35 28.67 -2.7 28.34 -1 28 C-0.67 18.76 -0.34 9.52 0 0 Z " fill="#31475A" transform="translate(175,313)"/>
<path d="M0 0 C1.134375 0.020625 2.26875 0.04125 3.4375 0.0625 C5.02243084 3.23236168 4.7315042 6.60282261 4.4375 10.0625 C3.4375 12.5625 3.4375 12.5625 2.4375 14.0625 C3.0975 14.3925 3.7575 14.7225 4.4375 15.0625 C4.4375 17.7025 4.4375 20.3425 4.4375 23.0625 C1.4675 23.3925 -1.5025 23.7225 -4.5625 24.0625 C-5.80544811 21.57660378 -5.60741409 20.07845817 -5.4765625 17.30859375 C-5.43273437 16.37208984 -5.38890625 15.43558594 -5.34375 14.47070312 C-5.2921875 13.49037109 -5.240625 12.51003906 -5.1875 11.5 C-5.14367187 10.51580078 -5.09984375 9.53160156 -5.0546875 8.51757812 C-4.63607307 0.08133462 -4.63607307 0.08133462 0 0 Z " fill="#136F98" transform="translate(312.5625,173.9375)"/>
<path d="M0 0 C2.31 0 4.62 0 7 0 C7 8.58 7 17.16 7 26 C4.69 26 2.38 26 0 26 C0 17.42 0 8.84 0 0 Z " fill="#465A6B" transform="translate(296,312)"/>
<path d="M0 0 C2.4375 1.625 2.4375 1.625 4 4 C4.5625 6.9375 4.5625 6.9375 4 10 C1.9375 12.9375 1.9375 12.9375 -1 15 C-4.6875 15 -4.6875 15 -8 14 C-10.54393252 10.18410122 -10.57737956 7.4700353 -10 3 C-7.83165681 -1.08158719 -4.19361486 -0.51500533 0 0 Z " fill="#F6F7F8" transform="translate(375,318)"/>
<path d="M0 0 C-1.29009643 0.50403768 -2.58213789 1.00309926 -3.875 1.5 C-4.59429687 1.7784375 -5.31359375 2.056875 -6.0546875 2.34375 C-8 3 -8 3 -10 3 C-10 3.99 -10 4.98 -10 6 C-16.75 8.125 -16.75 8.125 -19 7 C-18.67 7.99 -18.34 8.98 -18 10 C-19.32 9.67 -20.64 9.34 -22 9 C-21.814375 9.78375 -21.62875 10.5675 -21.4375 11.375 C-21 14 -21 14 -22 16 C-20.68 16.66 -19.36 17.32 -18 18 C-22.455 19.485 -22.455 19.485 -27 21 C-27.33 20.34 -27.66 19.68 -28 19 C-28.37125 19.474375 -28.7425 19.94875 -29.125 20.4375 C-31.62646962 22.52205802 -33.81593418 22.64621491 -37 23 C-35.85868021 16.74991545 -31.0601332 13.4429162 -26.06640625 9.9453125 C-6.57139632 -2.45847533 -6.57139632 -2.45847533 0 0 Z " fill="#2B3D54" transform="translate(290,261)"/>
<path d="M0 0 C2.33294775 -0.04241723 4.66702567 -0.04092937 7 0 C8 1 8 1 8.0625 4.5625 C8.041875 5.696875 8.02125 6.83125 8 8 C7.195625 8.28875 6.39125 8.5775 5.5625 8.875 C2.8673532 9.73262568 2.8673532 9.73262568 2 12 C1.01 12.33 0.02 12.66 -1 13 C-0.88140625 13.81984375 -0.7628125 14.6396875 -0.640625 15.484375 C-0.51171875 16.56203125 -0.3828125 17.6396875 -0.25 18.75 C-0.11078125 19.81734375 0.0284375 20.8846875 0.171875 21.984375 C0 25 0 25 -1.984375 27.390625 C-2.64953125 27.92171875 -3.3146875 28.4528125 -4 29 C-6.54966838 23.26324615 -6.8865822 17.16261546 -6 11 C-3.5625 8.125 -3.5625 8.125 -1 6 C-0.12010026 2.81849108 -0.12010026 2.81849108 0 0 Z " fill="#255B95" transform="translate(295,175)"/>
<path d="M0 0 C1.134375 0.020625 2.26875 0.04125 3.4375 0.0625 C3.5625 5.8125 3.5625 5.8125 2.4375 8.0625 C1.4475 8.3925 0.4575 8.7225 -0.5625 9.0625 C-0.8925 9.7225 -1.2225 10.3825 -1.5625 11.0625 C0.0875 11.3925 1.7375 11.7225 3.4375 12.0625 C3.4375 14.7025 3.4375 17.3425 3.4375 20.0625 C-3.3125 20.1875 -3.3125 20.1875 -5.5625 19.0625 C-5.6616667 12.96925749 -5.73578971 7.05931407 -4.5625 1.0625 C-3.5625 0.0625 -3.5625 0.0625 0 0 Z " fill="#156A99" transform="translate(285.5625,175.9375)"/>
<path d="M0 0 C2.0836309 0.14151828 4.16689938 0.28837936 6.25 0.4375 C7.99023438 0.55931641 7.99023438 0.55931641 9.765625 0.68359375 C12.32379885 0.93384989 14.53355896 1.3549308 17 2 C18.051875 2 19.10375 2 20.1875 2 C21.115625 2 22.04375 2 23 2 C24 3 24 3 26 6 C25.01 6.495 25.01 6.495 24 7 C26.40436026 10.60654039 27.94679607 10.85452932 32 12 C31.67 12.99 31.34 13.98 31 15 C26.77275721 14.4235578 23.96769096 12.94866803 20.375 10.6875 C15.46868827 7.72188018 10.7427221 5.623285 5.27734375 3.921875 C2.8895759 2.95530002 1.66120067 1.9389752 0 0 Z " fill="#344580" transform="translate(209,246)"/>
<path d="M0 0 C0 3.96 0 7.92 0 12 C-3.3125 13.125 -3.3125 13.125 -7 14 C-10 12 -10 12 -10.6171875 10.16015625 C-11.30758844 4.54280313 -11.30758844 4.54280313 -9.9375 2.125 C-3.37313433 -1.68656716 -3.37313433 -1.68656716 0 0 Z " fill="#136E95" transform="translate(277,212)"/>
<path d="M0 0 C0.99 0.33 1.98 0.66 3 1 C2.83923477 1.6523613 2.67846954 2.3047226 2.51283264 2.97685242 C1.86765075 6.78019863 1.82317137 10.52446891 1.79467773 14.37036133 C1.78477814 15.20014496 1.77487854 16.02992859 1.76467896 16.88485718 C1.73318721 19.61721989 1.70835543 22.34959996 1.68359375 25.08203125 C1.66301357 26.98061058 1.64201682 28.87918543 1.62062073 30.77775574 C1.56550993 35.76716482 1.51605229 40.7566145 1.46777344 45.74609375 C1.41747803 50.84053141 1.36183398 55.93491034 1.30664062 61.02929688 C1.19919354 71.01948104 1.09771884 81.00971627 1 91 C0.67 91 0.34 91 0 91 C0 60.97 0 30.94 0 0 Z " fill="#235476" transform="translate(255,176)"/>
<path d="M0 0 C6.0546875 -0.1953125 6.0546875 -0.1953125 8 0 C10 2 10 2 10.25 5.5 C10 9 10 9 8 11 C5.27130593 10.96712417 2.7033382 10.43602229 0 10 C0 6.7 0 3.4 0 0 Z " fill="#126E95" transform="translate(268,188)"/>
<path d="M0 0 C0.33 0 0.66 0 1 0 C1 26.73 1 53.46 1 81 C-0.32 79.68 -1.64 78.36 -3 77 C-2.34 76.01 -1.68 75.02 -1 74 C-0.66912177 70.70218966 -0.66912177 70.70218966 -0.68115234 66.86645508 C-0.67110672 66.14425278 -0.6610611 65.42205048 -0.65071106 64.67796326 C-0.61983061 62.29182732 -0.60283066 59.90580383 -0.5859375 57.51953125 C-0.56722974 55.86471079 -0.54765662 54.2098999 -0.5272522 52.55509949 C-0.47588351 48.20026287 -0.43628322 43.84539531 -0.39910889 39.49041748 C-0.35909888 35.04626786 -0.30799286 30.60224749 -0.2578125 26.15820312 C-0.16099714 17.43889031 -0.0766104 8.71951363 0 0 Z " fill="#1E346E" transform="translate(244,186)"/>
<path d="M0 0 C-1.24556092 0.81928886 -2.49666635 1.63015186 -3.75 2.4375 C-4.44609375 2.88996094 -5.1421875 3.34242188 -5.859375 3.80859375 C-7.95511648 4.97501921 -9.66385941 5.52709705 -12 6 C-15.12935917 6.73751094 -15.12935917 6.73751094 -18 8 C-19.09166275 9.93330603 -19.09166275 9.93330603 -20 12 C-22.5 13.625 -22.5 13.625 -25 15 C-25.66 15.66 -26.32 16.32 -27 17 C-27.99 17 -28.98 17 -30 17 C-26.84950324 8.96265314 -16.47317574 4.44413448 -9.09375 0.91015625 C-5.5507351 -0.62999761 -3.68189357 -1.14265663 0 0 Z " fill="#CEE7EF" transform="translate(286,251)"/>
<path d="M0 0 C2.97 0 5.94 0 9 0 C9 2.64 9 5.28 9 8 C4.545 8.495 4.545 8.495 0 9 C0 6.03 0 3.06 0 0 Z " fill="#1586A5" transform="translate(308,189)"/>
<path d="M0 0 C3 0 3 0 5.25 1.6875 C7 4 7 4 6.75 6.5625 C6.5025 7.366875 6.255 8.17125 6 9 C6 9.99 6 10.98 6 12 C1.89041233 10.54955729 -1.43258745 8.48889248 -5 6 C-4.34 5.34 -3.68 4.68 -3 4 C-2.525625 3.29875 -2.05125 2.5975 -1.5625 1.875 C-1.046875 1.25625 -0.53125 0.6375 0 0 Z " fill="#3A4A62" transform="translate(234,273)"/>
<path d="M0 0 C1.20527344 0.00322266 2.41054687 0.00644531 3.65234375 0.00976562 C4.90660156 0.01814453 6.16085938 0.02652344 7.453125 0.03515625 C9.35771484 0.04192383 9.35771484 0.04192383 11.30078125 0.04882812 C14.43494336 0.06061069 17.56901041 0.07706209 20.703125 0.09765625 C20.703125 0.42765625 20.703125 0.75765625 20.703125 1.09765625 C-4.84917626 4.72945541 -4.84917626 4.72945541 -10.296875 1.09765625 C-6.82022405 0.02877101 -3.62550022 -0.01710142 0 0 Z " fill="#273745" transform="translate(171.296875,257.90234375)"/>
<path d="M0 0 C10.35104981 -0.70176609 19.6972662 2.67314707 29 7 C29 7.66 29 8.32 29 9 C29.66 9.33 30.32 9.66 31 10 C30.01 10 29.02 10 28 10 C28 9.34 28 8.68 28 8 C27.154375 8.061875 26.30875 8.12375 25.4375 8.1875 C22.07283509 8.00397282 19.93703534 7.21382971 16.921875 5.79296875 C14.07971289 4.62028804 11.16045921 4.08481532 8.15625 3.47265625 C5.359924 2.85969349 2.69208884 1.96639086 0 1 C0 0.67 0 0.34 0 0 Z " fill="#5169A2" transform="translate(199,150)"/>
<path d="M0 0 C2.33294775 -0.04241723 4.66702567 -0.04092937 7 0 C8 1 8 1 8.0625 4.5625 C8.041875 5.696875 8.02125 6.83125 8 8 C5.36 8 2.72 8 0 8 C0 5.36 0 2.72 0 0 Z " fill="#14A3B6" transform="translate(295,175)"/>
<path d="M0 0 C2.33294775 -0.04241723 4.66702567 -0.04092937 7 0 C8 1 8 1 8.125 4 C8 7 8 7 7 8 C4.66702567 8.04092937 2.33294775 8.04241723 0 8 C0 5.36 0 2.72 0 0 Z " fill="#13B1BD" transform="translate(268,215)"/>
<path d="M0 0 C2.64 0 5.28 0 8 0 C8 2.64 8 5.28 8 8 C2.25 8.125 2.25 8.125 0 7 C0 4.69 0 2.38 0 0 Z " fill="#17A4B7" transform="translate(295,189)"/>
<path d="M0 0 C1.37478516 0.01740234 1.37478516 0.01740234 2.77734375 0.03515625 C3.69644531 0.04417969 4.61554688 0.05320312 5.5625 0.0625 C6.27277344 0.07410156 6.98304688 0.08570313 7.71484375 0.09765625 C6.83984375 4.97265625 6.83984375 4.97265625 5.71484375 6.09765625 C3.04425524 6.23880786 0.39052137 6.14012732 -2.28515625 6.09765625 C-2.66734392 4.44150968 -2.99910727 2.77308601 -3.28515625 1.09765625 C-2.28515625 0.09765625 -2.28515625 0.09765625 0 0 Z " fill="#F5F6F7" transform="translate(337.28515625,326.90234375)"/>
<path d="M0 0 C1.37478516 0.01740234 1.37478516 0.01740234 2.77734375 0.03515625 C3.69644531 0.04417969 4.61554688 0.05320312 5.5625 0.0625 C6.27277344 0.07410156 6.98304688 0.08570313 7.71484375 0.09765625 C7.33984375 2.53515625 7.33984375 2.53515625 6.71484375 5.09765625 C3.75819856 6.57597885 0.97254638 6.15798408 -2.28515625 6.09765625 C-2.66734392 4.44150968 -2.99910727 2.77308601 -3.28515625 1.09765625 C-2.28515625 0.09765625 -2.28515625 0.09765625 0 0 Z " fill="#F7F7F8" transform="translate(154.28515625,326.90234375)"/>
<path d="M0 0 C0.33 0 0.66 0 1 0 C1 1.98 1 3.96 1 6 C1.66 6 2.32 6 3 6 C3.33 5.34 3.66 4.68 4 4 C5.98 4.99 7.96 5.98 10 7 C6.75255007 10.43301849 4.14054132 12.51567521 0 15 C0 10.05 0 5.1 0 0 Z " fill="#246B98" transform="translate(256,251)"/>
<path d="M0 0 C1.37478516 0.01740234 1.37478516 0.01740234 2.77734375 0.03515625 C3.69644531 0.04417969 4.61554688 0.05320312 5.5625 0.0625 C6.27277344 0.07410156 6.98304688 0.08570313 7.71484375 0.09765625 C7.33984375 2.53515625 7.33984375 2.53515625 6.71484375 5.09765625 C3.75819856 6.57597885 0.97254638 6.15798408 -2.28515625 6.09765625 C-2.66734392 4.44150968 -2.99910727 2.77308601 -3.28515625 1.09765625 C-2.28515625 0.09765625 -2.28515625 0.09765625 0 0 Z " fill="#F5F9F9" transform="translate(228.28515625,326.90234375)"/>
<path d="M0 0 C2.31 0 4.62 0 7 0 C7 2.31 7 4.62 7 7 C4.69 7.33 2.38 7.66 0 8 C-1.125 2.25 -1.125 2.25 0 0 Z " fill="#14A7B7" transform="translate(296,202)"/>
<path d="M0 0 C-1.29009643 0.50403768 -2.58213789 1.00309926 -3.875 1.5 C-4.95394531 1.91765625 -4.95394531 1.91765625 -6.0546875 2.34375 C-8 3 -8 3 -10 3 C-10 3.99 -10 4.98 -10 6 C-16.75 8.125 -16.75 8.125 -19 7 C-18.67 7.99 -18.34 8.98 -18 10 C-19.98 10 -21.96 10 -24 10 C-20.86382753 6.44772602 -17.75142779 4.72162163 -13.4375 2.8125 C-12.30183594 2.30332031 -11.16617187 1.79414063 -9.99609375 1.26953125 C-4.0406051 -1.25398089 -4.0406051 -1.25398089 0 0 Z " fill="#546170" transform="translate(290,261)"/>
<path d="M0 0 C0.66 0.33 1.32 0.66 2 1 C2 5 2 5 0.42578125 6.703125 C-0.27160156 7.21359375 -0.96898437 7.7240625 -1.6875 8.25 C-2.37199219 8.77078125 -3.05648438 9.2915625 -3.76171875 9.828125 C-6.36967921 11.19354932 -8.09696516 11.22370146 -11 11 C-7.6189962 6.86378916 -4.33409466 3.18683431 0 0 Z " fill="#35475C" transform="translate(264,271)"/>
<path d="M0 0 C3.23861303 1.44424635 5.61969163 3.25772247 8.25 5.625 C8.95640625 6.25664062 9.6628125 6.88828125 10.390625 7.5390625 C10.92171875 8.02117187 11.4528125 8.50328125 12 9 C11.67 10.32 11.34 11.64 11 13 C9.35 13.33 7.7 13.66 6 14 C6 11.36 6 8.72 6 6 C4.35 5.67 2.7 5.34 1 5 C0.67 3.35 0.34 1.7 0 0 Z " fill="#405B9F" transform="translate(230,160)"/>
<path d="M0 0 C2.31 0 4.62 0 7 0 C7 2.31 7 4.62 7 7 C4.69 7 2.38 7 0 7 C0 4.69 0 2.38 0 0 Z " fill="#0FBCBF" transform="translate(282,189)"/>
<path d="M0 0 C2.31 0 4.62 0 7 0 C7 2.31 7 4.62 7 7 C4.69 7 2.38 7 0 7 C0 4.69 0 2.38 0 0 Z " fill="#12BAC7" transform="translate(269,189)"/>
<path d="M0 0 C2.31 0 4.62 0 7 0 C7 2.31 7 4.62 7 7 C5.00045254 7.04254356 2.99958364 7.04080783 1 7 C0 6 0 6 -0.0625 2.9375 C-0.041875 1.968125 -0.02125 0.99875 0 0 Z " fill="#0FBCC6" transform="translate(282,216)"/>
<path d="M0 0 C2.31 0 4.62 0 7 0 C7.04254356 1.99954746 7.04080783 4.00041636 7 6 C6 7 6 7 2.9375 7.0625 C1.4834375 7.0315625 1.4834375 7.0315625 0 7 C0 4.69 0 2.38 0 0 Z " fill="#13B7C2" transform="translate(282,176)"/>
<path d="M0 0 C2.31 0 4.62 0 7 0 C7 2.31 7 4.62 7 7 C5.00045254 7.04254356 2.99958364 7.04080783 1 7 C0 6 0 6 -0.0625 2.9375 C-0.041875 1.968125 -0.02125 0.99875 0 0 Z " fill="#10AABC" transform="translate(309,176)"/>
<path d="M0 0 C1.4540625 0.0309375 1.4540625 0.0309375 2.9375 0.0625 C2.9375 2.3725 2.9375 4.6825 2.9375 7.0625 C0.93795254 7.10504356 -1.06291636 7.10330783 -3.0625 7.0625 C-4.0625 6.0625 -4.0625 6.0625 -4.1875 3.5625 C-4.00295237 -0.12845252 -3.76342282 0.07680455 0 0 Z " fill="#0FBEBF" transform="translate(286.0625,201.9375)"/>
<path d="M0 0 C0.66 0.33 1.32 0.66 2 1 C0.948125 1.556875 -0.10375 2.11375 -1.1875 2.6875 C-3.86133774 4.19388746 -5.42217704 5.43222887 -7.625 7.6875 C-10.98753353 10.9615458 -13.46118521 11 -18 11 C-12.65765859 6.20559105 -6.85446773 2.28482258 0 0 Z " fill="#5D719D" transform="translate(282,153)"/>
<path d="M0 0 C5.61 0 11.22 0 17 0 C17 0.33 17 0.66 17 1 C15.41913952 1.36504603 13.83516093 1.71660506 12.25 2.0625 C11.36828125 2.25972656 10.4865625 2.45695313 9.578125 2.66015625 C6.99867595 3.00017453 5.4609554 2.70392193 3 2 C1.45049732 3.54950268 1.78344807 5.09990594 1.68359375 7.25390625 C1.64169922 8.10791016 1.59980469 8.96191406 1.55664062 9.84179688 C1.51732422 10.73962891 1.47800781 11.63746094 1.4375 12.5625 C1.39431641 13.46419922 1.35113281 14.36589844 1.30664062 15.29492188 C1.20021858 17.52978485 1.09820012 19.76476308 1 22 C0.67 22 0.34 22 0 22 C0 14.74 0 7.48 0 0 Z " fill="#29489D" transform="translate(171,151)"/>
<path d="M0 0 C1.2065625 0.0309375 1.2065625 0.0309375 2.4375 0.0625 C3.0625 2.4375 3.0625 2.4375 3.4375 5.0625 C2.7775 5.7225 2.1175 6.3825 1.4375 7.0625 C-1.1875 6.6875 -1.1875 6.6875 -3.5625 6.0625 C-3.605221 4.39638095 -3.60313832 2.72867115 -3.5625 1.0625 C-2.5625 0.0625 -2.5625 0.0625 0 0 Z " fill="#415567" transform="translate(178.5625,301.9375)"/>
<path d="M0 0 C2.0836309 0.14151828 4.16689938 0.28837936 6.25 0.4375 C7.99023438 0.55931641 7.99023438 0.55931641 9.765625 0.68359375 C12.32415573 0.9338848 14.53401468 1.35105649 17 2 C18.99963028 2.03845443 21.00051633 2.04544281 23 2 C23 2.33 23 2.66 23 3 C21.5437328 3.36256858 20.08488815 3.71479793 18.625 4.0625 C17.81289062 4.25972656 17.00078125 4.45695313 16.1640625 4.66015625 C14 5 14 5 12 4 C9.73234399 3.76764056 7.46638586 3.61898297 5.19140625 3.4765625 C2.60074516 2.91317453 1.67020423 2.00854143 0 0 Z " fill="#2C3C7E" transform="translate(209,246)"/>
<path d="M0 0 C1.2065625 0.0309375 1.2065625 0.0309375 2.4375 0.0625 C3.0625 2.4375 3.0625 2.4375 3.4375 5.0625 C2.7775 5.7225 2.1175 6.3825 1.4375 7.0625 C-0.6875 6.6875 -0.6875 6.6875 -2.5625 6.0625 C-2.94468767 4.40635343 -3.27645102 2.73792976 -3.5625 1.0625 C-2.5625 0.0625 -2.5625 0.0625 0 0 Z " fill="#394E60" transform="translate(299.5625,301.9375)"/>
<path d="M0 0 C1.125 1.625 1.125 1.625 2 4 C1.375 7.1875 1.375 7.1875 0 10 C-2.125 10.875 -2.125 10.875 -4 11 C-4.66 9.68 -5.32 8.36 -6 7 C-5.01 6.67 -4.02 6.34 -3 6 C-3 4.68 -3 3.36 -3 2 C-2.01 1.34 -1.02 0.68 0 0 Z " fill="#3D4E60" transform="translate(252,282)"/>
<path d="M0 0 C0.99 0.33 1.98 0.66 3 1 C2.84152588 1.71115967 2.68305176 2.42231934 2.51977539 3.1550293 C2.00385198 5.97891634 1.79569313 8.65298992 1.68359375 11.51953125 C1.64169922 12.54111328 1.59980469 13.56269531 1.55664062 14.61523438 C1.51732422 15.67033203 1.47800781 16.72542969 1.4375 17.8125 C1.39431641 18.88693359 1.35113281 19.96136719 1.30664062 21.06835938 C1.20089017 23.71212082 1.09879767 26.3559711 1 29 C0.67 29 0.34 29 0 29 C0 19.43 0 9.86 0 0 Z " fill="#284F7E" transform="translate(255,176)"/>
<path d="M0 0 C-2.36543716 2.36543716 -4.57067205 3.27541323 -7.625 4.625 C-8.62789063 5.07101562 -9.63078125 5.51703125 -10.6640625 5.9765625 C-11.43492187 6.31429688 -12.20578125 6.65203125 -13 7 C-13 4 -13 4 -12 2 C-8.25511072 -0.69632028 -4.42217175 -0.14740572 0 0 Z " fill="#326C90" transform="translate(279,251)"/>
<path d="M0 0 C1.98 0 3.96 0 6 0 C6 1.98 6 3.96 6 6 C4.02 6 2.04 6 0 6 C0 4.02 0 2.04 0 0 Z " fill="#0FBFC9" transform="translate(309,190)"/>
<path d="M0 0 C0.99 0 1.98 0 3 0 C3 0.99 3 1.98 3 3 C2.360625 3.28875 1.72125 3.5775 1.0625 3.875 C-1.15206079 4.82823451 -1.15206079 4.82823451 -2 7 C-3.98 7 -5.96 7 -8 7 C-7.3125 5.125 -7.3125 5.125 -6 3 C-3.4375 1.8125 -3.4375 1.8125 -1 1 C-0.67 0.67 -0.34 0.34 0 0 Z " fill="#3B5895" transform="translate(268,162)"/>
<path d="M0 0 C0.33 0 0.66 0 1 0 C1 7.26 1 14.52 1 22 C0.67 22 0.34 22 0 22 C0 19.69 0 17.38 0 15 C-0.99 14.67 -1.98 14.34 -3 14 C-2.68289063 13.44828125 -2.36578125 12.8965625 -2.0390625 12.328125 C-0.87290025 9.71522011 -0.59954289 7.59420998 -0.375 4.75 C-0.30023438 3.85796875 -0.22546875 2.9659375 -0.1484375 2.046875 C-0.09945313 1.37140625 -0.05046875 0.6959375 0 0 Z " fill="#1B5A8B" transform="translate(317,174)"/>
<path d="M0 0 C0.66 0.66 1.32 1.32 2 2 C-1.61973402 3.31626692 -4.09567131 4 -8 4 C-8.33 3.01 -8.66 2.02 -9 1 C-5.60805912 -0.60174986 -3.55768883 -1.4721471 0 0 Z " fill="#387094" transform="translate(290,246)"/>
<path d="M0 0 C1.65 0 3.3 0 5 0 C5 1.98 5 3.96 5 6 C3.35 5.67 1.7 5.34 0 5 C0 3.35 0 1.7 0 0 Z " fill="#07C7C4" transform="translate(297,203)"/>
<path d="M0 0 C-4.455 3.465 -4.455 3.465 -9 7 C-9.33 5.68 -9.66 4.36 -10 3 C-9.01 3 -8.02 3 -7 3 C-7 2.01 -7 1.02 -7 0 C-3.98968256 -0.93423645 -3.13349732 -1.04449911 0 0 Z " fill="#3B6E90" transform="translate(266,259)"/>
<path d="M0 0 C0.66 0.33 1.32 0.66 2 1 C0.02 3.31 -1.96 5.62 -4 8 C-5.32 7.67 -6.64 7.34 -8 7 C-5.36 4.69 -2.72 2.38 0 0 Z " fill="#CCD5DC" transform="translate(260,284)"/>
<path d="M0 0 C0.33 0.66 0.66 1.32 1 2 C3.31 2 5.62 2 8 2 C5.37801226 4.15377564 3.35595828 5.40072174 0 6 C-0.66 4.68 -1.32 3.36 -2 2 C-1.34 1.34 -0.68 0.68 0 0 Z " fill="#22659B" transform="translate(294,181)"/>
<path d="M0 0 C1.65 0 3.3 0 5 0 C5 1.65 5 3.3 5 5 C3.35 5 1.7 5 0 5 C0 3.35 0 1.7 0 0 Z " fill="#0AC8C7" transform="translate(296,190)"/>
<path d="M0 0 C-3.87564767 3.61139896 -3.87564767 3.61139896 -6 5 C-8.375 4.8125 -8.375 4.8125 -10 4 C-4.7704918 -1.59016393 -4.7704918 -1.59016393 0 0 Z " fill="#2D488A" transform="translate(286,155)"/>
<path d="M0 0 C0.99 0.33 1.98 0.66 3 1 C2.67 2.32 2.34 3.64 2 5 C2.99 5.33 3.98 5.66 5 6 C3.35 6.66 1.7 7.32 0 8 C-0.66 6.68 -1.32 5.36 -2 4 C-1.34 3.34 -0.68 2.68 0 2 C0 1.34 0 0.68 0 0 Z " fill="#213850" transform="translate(240,277)"/>
<path d="M0 0 C4.96916636 0.51405169 9.29026351 1.23384882 14 3 C14 3.33 14 3.66 14 4 C12.54207116 4.05399736 11.08357288 4.09279177 9.625 4.125 C8.81289062 4.14820313 8.00078125 4.17140625 7.1640625 4.1953125 C5 4 5 4 3 2 C2.01 1.34 1.02 0.68 0 0 Z " fill="#646D7C" transform="translate(202,258)"/>
<path d="M0 0 C3.36591866 1.44253657 5.51047079 3.33264727 8 6 C6.02 6 4.04 6 2 6 C1.34 4.02 0.68 2.04 0 0 Z " fill="#50659B" transform="translate(230,160)"/>
<path d="M0 0 C0.66 0.33 1.32 0.66 2 1 C2 2.32 2 3.64 2 5 C1.01 5.33 0.02 5.66 -1 6 C-1 5.34 -1 4.68 -1 4 C-2.65 4.66 -4.3 5.32 -6 6 C-4 4 -2 2 0 0 Z " fill="#505D70" transform="translate(264,271)"/>
<path d="M0 0 C1.4540625 0.0309375 1.4540625 0.0309375 2.9375 0.0625 C2.9375 1.0525 2.9375 2.0425 2.9375 3.0625 C0.9575 3.3925 -1.0225 3.7225 -3.0625 4.0625 C-3.3925 3.0725 -3.7225 2.0825 -4.0625 1.0625 C-3.0625 0.0625 -3.0625 0.0625 0 0 Z " fill="#236B9A" transform="translate(277.0625,246.9375)"/>
<path d="M0 0 C2.97 0.33 5.94 0.66 9 1 C7.68 1.33 6.36 1.66 5 2 C5 2.66 5 3.32 5 4 C3.35 4.33 1.7 4.66 0 5 C0 3.35 0 1.7 0 0 Z " fill="#1C679C" transform="translate(294,196)"/>
<path d="M0 0 C0.99 0.33 1.98 0.66 3 1 C3.33 2.98 3.66 4.96 4 7 C2.35 6.67 0.7 6.34 -1 6 C-0.67 4.02 -0.34 2.04 0 0 Z " fill="#263850" transform="translate(246,283)"/>
<path d="M0 0 C1.32 0 2.64 0 4 0 C4 1.65 4 3.3 4 5 C2.68 5 1.36 5 0 5 C0 3.35 0 1.7 0 0 Z " fill="#04CECE" transform="translate(297,177)"/>
<path d="M0 0 C1.32 0 2.64 0 4 0 C4 1.65 4 3.3 4 5 C2.68 5 1.36 5 0 5 C0 3.35 0 1.7 0 0 Z " fill="#05C5CB" transform="translate(310,177)"/>
<path d="M0 0 C-1.98 1.32 -3.96 2.64 -6 4 C-6.66 3.67 -7.32 3.34 -8 3 C-7.67 2.01 -7.34 1.02 -7 0 C-3.86650268 -1.04449911 -3.01031744 -0.93423645 0 0 Z " fill="#DAF0F6" transform="translate(286,251)"/>
<path d="M0 0 C5.75 -0.125 5.75 -0.125 8 1 C8 1.66 8 2.32 8 3 C5.6568787 2.74438677 3.32156597 2.40729228 1 2 C0.67 1.34 0.34 0.68 0 0 Z " fill="#5B638E" transform="translate(215,249)"/>
</svg>
